<svg width="100mm" height="100mm" version="1.1" viewBox="0 0 100 100" xml:space="preserve" xmlns="http://www.w3.org/2000/svg"><path d="m5.2437 49.94c0.2049-4.2091 1.8804-7.0699 4.0193-9.6859 2.4821-1.7045 4.9199-3.1813 8.1139-3.8773 2.3707 0.17429 4.7449 0.10394 6.9988 0.92031 1.7498 0.86136 3.3244 2.0295 4.8355 3.3085 1.1691 1.2874 1.7811 2.8719 2.6568 4.394 0.44006 1.2429 0.95067 2.5151 0.85415 3.8773 0.11544-2.2592 0.40029-4.5524 0.81556-6.8716 0.89419-2.7748 1.7537-5.5546 3.054-8.2713 2.3326-4.0071 5.1603-7.5952 8.2713-10.944 3.5928-2.3708 7.1853-4.7426 11.071-6.2353 3.6936-1.2711 7.2059-1.7767 11.257-1.7809 3.0092 0.04071 5.9593 0.37678 8.8485 1.0174 2.71 1.1102 5.3956 2.3063 7.9866 3.833 2.3752 1.917 4.4847 3.9691 6.4448 6.1826 1.9082 2.4993 2.9065 5.5138 3.8625 8.6081 0.65906 2.7639 0.49515 5.3131-0.22428 7.7173-0.21266 1.839-1.05 3.2804-1.9088 4.7083l-1.6395 1.7738-1.205 0.86827-1.3252 0.54694c0.62924 0.20385 1.2942 0.33622 1.752 0.88304 1.4018 0.97514 2.1638 2.0925 3.054 3.1813 1.2765 2.206 1.4395 4.3182 1.8638 6.4673 0.20943 2.298-0.15708 4.5961-0.84577 6.8941-0.66778 2.4553-1.7891 4.2304-2.9268 5.9808-1.348 2.1412-3.0633 3.6214-4.6935 5.2546-2.7591 2.2484-5.8099 3.6232-8.7951 4.7983-2.5588 1.0809-5.2812 1.3987-8.0168 1.6543-2.6744 0.23584-5.4117-0.09536-8.1441-0.38175-3.478-0.50551-6.4675-1.7214-9.2894-3.1813-2.6813-1.2172-4.3315-2.6922-6.3626-4.072-2.377-1.8655-4.0452-4.0855-5.8536-6.2353l-3.1736-4.9628c-2.0765-4.7928-2.4206-6.4415-2.9345-8.3986-0.43718-1.9052-0.57636-2.8634-0.68896-3.9448l-0.20179-2.7995-0.50901 2.4178c-0.20978 1.3587-0.9198 2.4315-1.527 3.563-0.6422 1.0586-1.4131 1.8598-2.171 2.6871-1.1387 1.1986-2.4324 1.7774-3.6826 2.5303-2.0553 0.91001-3.2784 0.98783-4.581 1.1453-1.8598 0.26686-3.6715 0.0051-5.4718-0.38175-2.1723-0.83692-4.1058-2.2443-5.9808-3.7353-1.8541-2.6453-2.5541-3.9261-2.732-4.5361-0.34436-0.7236-0.52988-1.3903-0.58355-2.036z" stroke="#fff" stroke-miterlimit="3.9" stroke-width="2.6134" style="paint-order:stroke fill markers"/></svg>
